<?xml version="1.0" encoding="utf-8"?>
<!-- Generator: Adobe Illustrator 16.0.0, SVG Export Plug-In . SVG Version: 6.00 Build 0)  -->
<!DOCTYPE svg PUBLIC "-//W3C//DTD SVG 1.1//EN" "http://www.w3.org/Graphics/SVG/1.1/DTD/svg11.dtd">
<svg version="1.1" id="Layer_1" xmlns="http://www.w3.org/2000/svg" xmlns:xlink="http://www.w3.org/1999/xlink" x="0px" y="0px"
	 width="126px" height="126px" viewBox="0 0 126 126" enable-background="new 0 0 126 126" xml:space="preserve">
<g>
	<path d="M48.676,80.949l-1.915,11.374c-0.261,1.555,0.377,3.122,1.65,4.05c1.275,0.926,2.968,1.05,4.361,0.32l10.226-5.338
		l10.226,5.338c0.606,0.315,1.267,0.472,1.924,0.472c0.86,0,1.716-0.268,2.439-0.792c1.275-0.928,1.915-2.495,1.652-4.05
		l-1.913-11.374l8.234-8.077c1.126-1.102,1.528-2.749,1.044-4.247c-0.486-1.497-1.783-2.593-3.341-2.823l-11.41-1.692L66.715,53.78
		c-0.698-1.41-2.141-2.303-3.717-2.303c-1.572,0-3.015,0.893-3.718,2.303l-5.134,10.329l-11.41,1.692
		c-1.561,0.23-2.853,1.326-3.339,2.823c-0.486,1.498-0.086,3.146,1.042,4.247L48.676,80.949z"/>
	<path d="M112.036,13.863H98.971V6.616c0-3.326-2.696-6.022-6.022-6.022h-0.955c-3.327,0-6.022,2.696-6.022,6.022v7.247H39.875
		V6.616c0-3.326-2.696-6.022-6.021-6.022h-0.956c-3.326,0-6.021,2.696-6.021,6.022v7.247H13.964
		c-6.833,0-12.394,5.559-12.394,12.394v86.756c0,6.832,5.561,12.394,12.394,12.394h98.072c6.833,0,12.394-5.562,12.394-12.394
		V26.257C124.43,19.422,118.869,13.863,112.036,13.863z M110.419,111.396H15.581V43.862h94.838V111.396z"/>
</g>
</svg>
